<svg width="48" height="48" viewBox="0 0 48 48" fill="none" xmlns="http://www.w3.org/2000/svg">
<path d="M0 17.1429C0 7.67512 7.67512 0 17.1429 0H30.8571C40.3249 0 48 7.67512 48 17.1429V30.8571C48 40.3249 40.3249 48 30.8571 48H17.1429C7.67512 48 0 40.3249 0 30.8571V17.1429Z" fill="url(#paint0_linear_1097_2663)"/>
<path d="M14.5714 22.7143L15.4285 32.1429H32.1428L33 22.7143C35.2857 22.8572 39.6857 21.7714 39 16.2857C38.3143 10.8 33.5714 10.2857 31.2857 10.7143C30 9.71435 27.8571 6.42858 23.1428 6.85718C19.6607 7.17377 17.1428 9.14289 16.2857 10.7143C14.1428 10.4286 9.68569 11.0571 8.99998 15.8571C8.31424 20.6571 12.4285 22.4286 14.5714 22.7143Z" stroke="white" stroke-width="2"/>
<path d="M18.1575 26.5406L18.695 31.6553" stroke="white"/>
<path d="M29.4333 26.6007L28.8468 31.7814" stroke="white"/>
<path d="M23.5714 25.7142V31.7142" stroke="white"/>
<path d="M15.8572 42.8571C13.1122 42.8657 11.4286 40.1429 10.2858 38.5714C10.2858 38.5714 13.1965 41.6291 15.0001 40.7142C16.1275 40.1423 16.2858 38.9999 16.7143 38.5714L17.5715 37.7142C18.1834 37.1023 19.2858 36.8571 19.2858 36.8571C19.2858 36.8571 20.7583 36.6027 21.6429 36.8571C22.7368 37.1717 24.0001 38.5714 24.0001 38.5714C24.0001 38.5714 25.0951 37.0817 26.1429 36.8571C26.6339 36.7519 27.4286 36.8571 27.4286 36.8571C27.4286 36.8571 28.4897 37.0633 29.1429 37.2857C29.7463 37.491 30.0985 37.5971 30.6429 37.9285C31.5528 38.4823 31.6001 39.4202 32.5715 39.8571C34.3118 40.6399 37.2858 38.5714 37.2858 38.5714C37.2858 38.5714 35.8854 41.2211 34.2858 41.9999C32.0087 43.1088 30.0001 42.8571 27.8572 41.1428C25.7143 39.4285 24.4286 39.8571 23.5715 40.2857C23.5715 40.2857 21.0001 39.8571 18.8572 41.9999C18.4286 42.4285 17.0756 42.8533 15.8572 42.8571Z" fill="white" stroke="white" stroke-width="0.1"/>
<defs>
<linearGradient id="paint0_linear_1097_2663" x1="24" y1="0" x2="24" y2="48" gradientUnits="userSpaceOnUse">
<stop stop-color="#FD6A3E"/>
<stop offset="1" stop-color="#FE973F"/>
</linearGradient>
</defs>
</svg>
